<svg width="32" height="38" viewBox="0 0 32 38" fill="none" xmlns="http://www.w3.org/2000/svg">
<path d="M17.1319 0.464351L31.5311 14.7139C31.8313 15.011 32 15.4139 32 15.8341C32 16.2542 31.8313 16.6571 31.5311 16.9542C31.2309 17.2513 30.8238 17.4182 30.3992 17.4182C29.9746 17.4182 29.5675 17.2513 29.2673 16.9542L17.5999 5.40617L17.5999 36.4167C17.5999 36.8366 17.4313 37.2393 17.1313 37.5363C16.8313 37.8332 16.4243 38 16 38C15.5757 38 15.1687 37.8332 14.8687 37.5363C14.5686 37.2393 14.4001 36.8366 14.4001 36.4167L14.4001 5.40617L2.73274 16.9542C2.43253 17.2513 2.02536 17.4182 1.6008 17.4182C1.17624 17.4182 0.769071 17.2513 0.468863 16.9542C0.168654 16.6571 -9.50539e-07 16.2542 -9.68904e-07 15.8341C-9.87269e-07 15.4139 0.168654 15.011 0.468862 14.7139L14.8681 0.464351C15.0166 0.317146 15.1931 0.200362 15.3873 0.120685C15.5816 0.0410073 15.7897 -6.90192e-07 16 -6.99382e-07C16.2102 -7.08573e-07 16.4184 0.0410073 16.6127 0.120685C16.8069 0.200362 16.9833 0.317146 17.1319 0.464351Z" fill="#003544"/>
</svg>
